<?xml version="1.0" encoding="UTF-8" standalone="no"?>
<svg
   xmlns:dc="http://purl.org/dc/elements/1.1/"
   xmlns:cc="http://creativecommons.org/ns#"
   xmlns:rdf="http://www.w3.org/1999/02/22-rdf-syntax-ns#"
   xmlns:svg="http://www.w3.org/2000/svg"
   xmlns="http://www.w3.org/2000/svg"
   viewBox="0 0 182.58667 266.81332"
   height="266.81332"
   width="182.58667"
   xml:space="preserve"
   id="svg2"
   version="1.1"><metadata
     id="metadata8"><rdf:RDF><cc:Work
         rdf:about=""><dc:format>image/svg+xml</dc:format><dc:type
           rdf:resource="http://purl.org/dc/dcmitype/StillImage" /></cc:Work></rdf:RDF></metadata><defs
     id="defs6" /><g
     transform="matrix(1.3333333,0,0,-1.3333333,0,266.81333)"
     id="g10"><g
       transform="scale(0.1)"
       id="g12"><path
         id="path14"
         style="fill:#231f20;fill-opacity:1;fill-rule:nonzero;stroke:none"
         d="m 555.969,842.77 h 183.679 c 63.243,0 103.387,38.558 103.387,98.742 0,71.758 -57.867,91.818 -119.629,91.818 H 555.969 Z m 0,252.27 h 146.66 c 83.289,0 117.273,30.09 117.273,87.97 0,76.39 -53.984,87.17 -117.273,87.17 H 555.969 Z M 482.703,1331.9 H 682.52 c 48.632,0 112.664,0 145.839,-20.06 36.27,-21.6 64.786,-60.95 64.786,-114.96 0,-58.63 -30.821,-102.61 -81.758,-123.42 v -1.56 c 67.929,-13.88 104.929,-64.81 104.929,-132.72 0,-80.969 -57.878,-158.141 -167.421,-158.141 H 482.703 V 1331.9" /><path
         id="path16"
         style="fill:#231f20;fill-opacity:1;fill-rule:nonzero;stroke:none"
         d="m 684.656,1539.12 c -266.519,0 -482.617,-216.09 -482.617,-482.65 0,-266.54 216.098,-482.642 482.617,-482.642 266.614,0 482.714,216.102 482.714,482.642 0,266.56 -216.1,482.65 -482.714,482.65 z m 419.064,-482.88 c 0,-231.42 -187.575,-419.029 -419.064,-419.029 -231.394,0 -418.98,187.609 -418.98,419.029 0,231.4 187.586,418.97 418.98,418.97 231.489,0 419.064,-187.57 419.064,-418.97" /><path
         id="path18"
         style="fill:#231f20;fill-opacity:1;fill-rule:nonzero;stroke:none"
         d="M 1166.37,408.699 H 203.035 v 63.321 h 963.335 v -63.321" /><path
         id="path20"
         style="fill:#231f20;fill-opacity:1;fill-rule:nonzero;stroke:none"
         d="m 1110.09,551.328 c 1.55,3.473 3.64,6.41 6.25,9.043 2.62,2.59 5.73,4.52 9.25,6.02 3.48,1.48 7.26,2.16 11.12,2.16 4.01,0 7.72,-0.68 11.28,-2.16 3.44,-1.5 6.46,-3.43 9.04,-6.02 2.61,-2.633 4.77,-5.57 6.25,-9.043 1.59,-3.5 2.32,-7.308 2.32,-11.406 0,-4.141 -0.73,-7.922 -2.32,-11.391 -1.48,-3.57 -3.64,-6.562 -6.25,-9.16 -2.58,-2.66 -5.6,-4.601 -9.04,-6.09 -3.56,-1.422 -7.27,-2.121 -11.28,-2.121 -3.86,0 -7.64,0.699 -11.12,2.121 -3.52,1.489 -6.63,3.43 -9.25,6.09 -2.61,2.598 -4.7,5.59 -6.25,9.16 -1.6,3.469 -2.25,7.25 -2.25,11.391 0,4.098 0.65,7.906 2.25,11.406 m 4.77,-21.098 c 1.13,-3.05 2.79,-5.671 4.95,-7.871 2.09,-2.187 4.62,-3.929 7.55,-5.199 2.85,-1.238 6.04,-1.808 9.35,-1.808 3.39,0 6.52,0.57 9.34,1.808 2.88,1.27 5.38,3.012 7.55,5.199 2.06,2.2 3.76,4.821 4.94,7.871 1.24,2.961 1.85,6.239 1.85,9.692 0,3.527 -0.61,6.668 -1.85,9.656 -1.18,3.012 -2.88,5.57 -4.94,7.774 -2.17,2.148 -4.67,3.859 -7.55,5.128 -2.82,1.211 -5.95,1.891 -9.34,1.891 -3.31,0 -6.5,-0.68 -9.35,-1.891 -2.93,-1.269 -5.46,-2.98 -7.55,-5.128 -2.16,-2.204 -3.82,-4.762 -4.95,-7.774 -1.24,-2.988 -1.82,-6.129 -1.82,-9.656 0,-3.453 0.58,-6.731 1.82,-9.692 m 23.68,26.442 c 4.02,0 6.94,-0.801 8.87,-2.352 1.94,-1.64 2.93,-4.011 2.93,-7.25 0,-3.05 -0.9,-5.211 -2.54,-6.691 -1.75,-1.379 -3.82,-2.219 -6.38,-2.508 l 9.62,-14.781 h -5.56 l -9.19,14.469 h -5.52 V 523.09 h -5.29 v 33.582 z m -2.31,-14.934 c 1.19,0 2.31,0.063 3.37,0.121 0.98,0.051 1.98,0.27 2.77,0.629 0.86,0.422 1.52,0.961 1.99,1.672 0.49,0.781 0.69,1.762 0.69,3.141 0,1.109 -0.2,2.051 -0.65,2.648 -0.42,0.723 -1,1.199 -1.69,1.531 -0.71,0.411 -1.44,0.641 -2.37,0.809 -0.9,0.051 -1.75,0.141 -2.65,0.141 h -6.92 v -10.692 h 5.46" /><path
         id="path22"
         style="fill:#231f20;fill-opacity:1;fill-rule:nonzero;stroke:none"
         d="m 319.785,1751.34 c -2.297,3.66 -5.129,6.87 -8.547,9.63 -3.425,2.77 -7.273,4.92 -11.59,6.48 -4.316,1.53 -8.82,2.31 -13.546,2.31 -8.614,0 -15.938,-1.67 -21.954,-5 -6.011,-3.34 -10.894,-7.81 -14.636,-13.42 -3.742,-5.61 -6.465,-12 -8.172,-19.16 -1.723,-7.15 -2.563,-14.56 -2.563,-22.2 0,-7.31 0.84,-14.43 2.563,-21.34 1.707,-6.92 4.43,-13.14 8.172,-18.67 3.742,-5.53 8.625,-9.96 14.636,-13.3 6.016,-3.33 13.34,-4.99 21.954,-4.99 11.718,0 20.871,3.57 27.453,10.73 6.582,7.15 10.617,16.58 12.07,28.29 h 37.09 c -0.977,-10.89 -3.496,-20.73 -7.559,-29.5 -4.07,-8.79 -9.441,-16.29 -16.101,-22.45 -6.672,-6.19 -14.477,-10.91 -23.43,-14.16 -8.945,-3.25 -18.777,-4.88 -29.523,-4.88 -13.336,0 -25.332,2.32 -35.985,6.96 -10.644,4.63 -19.648,11.01 -26.953,19.15 -7.312,8.13 -12.937,17.68 -16.836,28.66 -3.918,10.98 -5.859,22.81 -5.859,35.5 0,13.02 1.941,25.09 5.859,36.24 3.899,11.14 9.524,20.86 16.836,29.15 7.305,8.3 16.309,14.8 26.953,19.52 10.653,4.71 22.649,7.07 35.985,7.07 9.601,0 18.671,-1.39 27.211,-4.14 8.535,-2.77 16.179,-6.8 22.925,-12.09 6.75,-5.28 12.325,-11.83 16.711,-19.63 4.403,-7.81 7.168,-16.76 8.301,-26.83 h -37.078 c -0.656,4.38 -2.121,8.41 -4.387,12.07" /><path
         id="path24"
         style="fill:#231f20;fill-opacity:1;fill-rule:nonzero;stroke:none"
         d="m 451.824,1720.23 c -4.148,4.55 -10.469,6.83 -18.914,6.83 -5.527,0 -10.129,-0.94 -13.777,-2.8 -3.664,-1.87 -6.594,-4.19 -8.789,-6.95 -2.199,-2.77 -3.742,-5.7 -4.641,-8.79 -0.89,-3.1 -1.426,-5.85 -1.582,-8.3 h 56.367 c -1.633,8.8 -4.519,15.46 -8.664,20.01 z m -39.156,-66.37 c 5.191,-5.03 12.684,-7.55 22.437,-7.55 7.004,0 13.02,1.75 18.059,5.24 5.039,3.5 8.125,7.2 9.277,11.11 h 30.497 c -4.891,-15.13 -12.372,-25.96 -22.45,-32.46 -10.09,-6.5 -22.285,-9.75 -36.601,-9.75 -9.922,0 -18.867,1.58 -26.836,4.75 -7.969,3.17 -14.715,7.68 -20.254,13.55 -5.527,5.85 -9.805,12.84 -12.813,20.97 -3.007,8.14 -4.511,17.08 -4.511,26.84 0,9.43 1.55,18.22 4.636,26.35 3.086,8.14 7.493,15.17 13.176,21.11 5.703,5.93 12.488,10.61 20.383,14.02 7.879,3.42 16.617,5.12 26.219,5.12 10.73,0 20.09,-2.07 28.054,-6.21 7.969,-4.15 14.524,-9.72 19.641,-16.72 5.129,-7 8.828,-14.96 11.106,-23.91 2.261,-8.94 3.082,-18.3 2.429,-28.05 h -90.996 c 0.488,-11.23 3.328,-19.36 8.547,-24.41" /><path
         id="path26"
         style="fill:#231f20;fill-opacity:1;fill-rule:nonzero;stroke:none"
         d="m 543.672,1749.75 v -23.43 h 0.488 c 1.633,3.91 3.828,7.53 6.594,10.86 2.762,3.34 5.934,6.19 9.512,8.55 3.574,2.35 7.402,4.18 11.472,5.49 4.063,1.3 8.289,1.94 12.688,1.94 2.273,0 4.785,-0.4 7.566,-1.21 v -32.2 c -1.64,0.32 -3.586,0.6 -5.871,0.85 -2.273,0.24 -4.473,0.36 -6.578,0.36 -6.352,0 -11.711,-1.06 -16.105,-3.17 -4.395,-2.11 -7.93,-5 -10.618,-8.66 -2.675,-3.66 -4.597,-7.93 -5.73,-12.81 -1.133,-4.88 -1.699,-10.16 -1.699,-15.85 v -56.85 H 510.73 v 126.13 h 32.942" /><path
         id="path28"
         style="fill:#231f20;fill-opacity:1;fill-rule:nonzero;stroke:none"
         d="m 684.707,1749.75 v -23.17 h -25.391 v -62.46 c 0,-5.87 0.989,-9.76 2.942,-11.71 1.953,-1.96 5.855,-2.93 11.695,-2.93 1.953,0 3.828,0.08 5.617,0.24 1.785,0.16 3.496,0.41 5.137,0.73 v -26.83 c -2.93,-0.49 -6.199,-0.82 -9.773,-0.98 -3.567,-0.16 -7.063,-0.25 -10.493,-0.25 -5.359,0 -10.457,0.37 -15.253,1.1 -4.793,0.73 -9.012,2.15 -12.672,4.27 -3.664,2.12 -6.555,5.12 -8.672,9.03 -2.121,3.91 -3.156,9.03 -3.156,15.36 v 74.43 h -20.989 v 23.17 h 20.989 v 37.82 h 34.628 v -37.82 h 25.391" /><path
         id="path30"
         style="fill:#231f20;fill-opacity:1;fill-rule:nonzero;stroke:none"
         d="m 739.531,1749.75 v -126.13 h -34.648 v 126.13 z m -34.648,19.52 v 28.55 h 34.648 v -28.55 h -34.648" /><path
         id="path32"
         style="fill:#231f20;fill-opacity:1;fill-rule:nonzero;stroke:none"
         d="m 753.262,1726.58 v 23.17 h 20.73 v 9.77 c 0,11.21 3.496,20.41 10.5,27.55 6.985,7.16 17.567,10.75 31.719,10.75 3.074,0 6.184,-0.13 9.277,-0.37 3.067,-0.25 6.082,-0.45 9.004,-0.61 v -25.87 c -4.062,0.5 -8.293,0.74 -12.676,0.74 -4.714,0 -8.093,-1.1 -10.117,-3.29 -2.031,-2.2 -3.047,-5.9 -3.047,-11.11 v -7.56 h 23.899 v -23.17 h -23.899 v -102.96 h -34.66 v 102.96 h -20.73" /><path
         id="path34"
         style="fill:#231f20;fill-opacity:1;fill-rule:nonzero;stroke:none"
         d="m 890.684,1749.75 v -126.13 h -34.649 v 126.13 z m -34.649,19.52 v 28.55 h 34.649 v -28.55 h -34.649" /><path
         id="path36"
         style="fill:#231f20;fill-opacity:1;fill-rule:nonzero;stroke:none"
         d="m 984.48,1720.23 c -4.136,4.55 -10.457,6.83 -18.906,6.83 -5.535,0 -10.113,-0.94 -13.777,-2.8 -3.672,-1.87 -6.594,-4.19 -8.789,-6.95 -2.195,-2.77 -3.738,-5.7 -4.641,-8.79 -0.887,-3.1 -1.414,-5.85 -1.57,-8.3 h 56.34 c -1.606,8.8 -4.492,15.46 -8.657,20.01 z m -39.16,-66.37 c 5.215,-5.03 12.707,-7.55 22.446,-7.55 7,0 13.015,1.75 18.062,5.24 5.039,3.5 8.137,7.2 9.27,11.11 h 30.492 c -4.87,-15.13 -12.36,-25.96 -22.43,-32.46 -10.113,-6.5 -22.293,-9.75 -36.605,-9.75 -9.934,0 -18.879,1.58 -26.836,4.75 -7.973,3.17 -14.731,7.68 -20.254,13.55 -5.527,5.85 -9.797,12.84 -12.817,20.97 -2.996,8.14 -4.507,17.08 -4.507,26.84 0,9.43 1.558,18.22 4.636,26.35 3.094,8.14 7.469,15.17 13.184,21.11 5.684,5.93 12.473,10.61 20.359,14.02 7.895,3.42 16.633,5.12 26.235,5.12 10.73,0 20.093,-2.07 28.062,-6.21 7.973,-4.15 14.513,-9.72 19.643,-16.72 5.12,-7 8.82,-14.96 11.08,-23.91 2.29,-8.94 3.1,-18.3 2.45,-28.05 h -90.993 c 0.476,-11.23 3.332,-19.36 8.523,-24.41" /><path
         id="path38"
         style="fill:#231f20;fill-opacity:1;fill-rule:nonzero;stroke:none"
         d="m 1131.47,1702.06 c -0.96,4.79 -2.63,9.02 -4.99,12.68 -2.35,3.66 -5.41,6.62 -9.15,8.91 -3.74,2.28 -8.45,3.41 -14.15,3.41 -5.68,0 -10.49,-1.13 -14.39,-3.41 -3.91,-2.29 -7.04,-5.28 -9.41,-9.03 -2.35,-3.75 -4.05,-8.01 -5.1,-12.81 -1.08,-4.8 -1.58,-9.8 -1.58,-15.01 0,-4.87 0.55,-9.75 1.68,-14.63 1.15,-4.89 2.98,-9.23 5.5,-13.06 2.53,-3.83 5.69,-6.91 9.52,-9.26 3.82,-2.37 8.42,-3.54 13.78,-3.54 5.7,0 10.45,1.12 14.28,3.41 3.82,2.28 6.88,5.33 9.15,9.15 2.27,3.82 3.9,8.17 4.86,13.05 0.99,4.88 1.48,9.92 1.48,15.12 0,5.21 -0.49,10.21 -1.48,15.02 z m 1.48,-62.34 c -4.07,-6.84 -9.4,-11.76 -15.99,-14.76 -6.58,-3.01 -14.01,-4.51 -22.31,-4.51 -9.45,0 -17.74,1.82 -24.88,5.48 -7.16,3.66 -13.07,8.62 -17.7,14.88 -4.65,6.26 -8.14,13.46 -10.5,21.6 -2.35,8.13 -3.52,16.58 -3.52,25.37 0,8.45 1.17,16.63 3.52,24.52 2.36,7.89 5.85,14.84 10.5,20.87 4.63,6 10.45,10.85 17.44,14.51 6.99,3.66 15.13,5.48 24.41,5.48 7.48,0 14.6,-1.57 21.32,-4.75 6.77,-3.17 12.09,-7.85 16,-14.03 h 0.49 v 63.44 h 34.64 v -174.2 h -32.93 v 16.1 h -0.49" /><path
         id="path40"
         style="fill:#231f20;fill-opacity:1;fill-rule:nonzero;stroke:none"
         d="m 287.551,284.379 c -1.75,12.199 -13.43,21.473 -26.828,21.473 -24.207,0 -33.328,-20.622 -33.328,-42.114 0,-20.418 9.121,-41.039 33.328,-41.039 16.484,0 25.808,11.34 27.824,27.5 h 26.16 c -2.766,-30.597 -23.906,-50.179 -53.984,-50.179 -37.957,0 -60.285,28.351 -60.285,63.718 0,36.442 22.328,64.801 60.285,64.801 26.98,0 49.648,-15.82 52.929,-44.16 h -26.101" /><path
         id="path42"
         style="fill:#231f20;fill-opacity:1;fill-rule:nonzero;stroke:none"
         d="m 371.016,218.922 c 16.66,0 21.629,14.269 21.629,28.34 0,14.258 -4.969,28.508 -21.629,28.508 -16.485,0 -21.504,-14.25 -21.504,-28.508 0,-14.071 5.019,-28.34 21.504,-28.34 z m 0,75.226 c 28.007,0 46.047,-18.519 46.047,-46.886 0,-28.184 -18.04,-46.731 -46.047,-46.731 -27.84,0 -45.871,18.547 -45.871,46.731 0,28.367 18.031,46.886 45.871,46.886" /><path
         id="path44"
         style="fill:#231f20;fill-opacity:1;fill-rule:nonzero;stroke:none"
         d="m 432.109,291.922 h 23.164 V 275.43 h 0.364 c 4.441,11.148 16.48,18.879 28.367,18.879 1.711,0 3.75,-0.321 5.332,-0.84 v -22.68 c -2.273,0.512 -5.859,0.84 -8.77,0.84 -17.89,0 -24.089,-12.891 -24.089,-28.5 V 203.09 h -24.368 v 88.832" /><path
         id="path46"
         style="fill:#231f20;fill-opacity:1;fill-rule:nonzero;stroke:none"
         d="m 564.813,247.078 c 0,14.121 -5.672,28.692 -21.297,28.692 -15.977,0 -21.121,-14.25 -21.121,-28.692 0,-14.406 5.496,-28.156 21.296,-28.156 15.997,0 21.122,13.75 21.122,28.156 z m -65.958,44.684 h 23.208 V 280.43 h 0.332 c 5.828,9.441 15.449,13.718 26.433,13.718 27.86,0 40.371,-22.488 40.371,-47.726 0,-23.723 -13.027,-45.891 -38.984,-45.891 -10.645,0 -20.774,4.649 -26.613,13.41 h -0.36 v -42.269 h -24.387 v 120.09" /><path
         id="path48"
         style="fill:#231f20;fill-opacity:1;fill-rule:nonzero;stroke:none"
         d="m 642.742,218.922 c 16.672,0 21.66,14.269 21.66,28.34 0,14.258 -4.988,28.508 -21.66,28.508 -16.465,0 -21.465,-14.25 -21.465,-28.508 0,-14.071 5,-28.34 21.465,-28.34 z m 0,75.226 c 28.02,0 46.086,-18.519 46.086,-46.886 0,-28.184 -18.066,-46.731 -46.086,-46.731 -27.808,0 -45.847,18.547 -45.847,46.731 0,28.367 18.039,46.886 45.847,46.886" /><path
         id="path50"
         style="fill:#231f20;fill-opacity:1;fill-rule:nonzero;stroke:none"
         d="M 703.879,291.922 H 727.07 V 275.43 h 0.371 c 4.434,11.148 16.465,18.879 28.321,18.879 1.711,0 3.789,-0.321 5.332,-0.84 v -22.68 c -2.239,0.512 -5.852,0.84 -8.758,0.84 -17.871,0 -24.066,-12.891 -24.066,-28.5 V 203.09 h -24.391 v 88.832" /><path
         id="path52"
         style="fill:#231f20;fill-opacity:1;fill-rule:nonzero;stroke:none"
         d="m 824.641,246.422 c -4.153,-3.633 -12.727,-3.774 -20.293,-5.172 -7.563,-1.512 -14.438,-4.129 -14.438,-13.051 0,-9.121 7.055,-11.32 14.973,-11.32 19.043,0 19.758,15.09 19.758,20.43 z m -56.387,18.027 c 1.394,22.86 21.824,29.699 41.758,29.699 17.683,0 39.011,-3.929 39.011,-25.218 v -46.231 c 0,-8.09 0.84,-16.14 3.118,-19.769 h -24.778 c -0.832,2.781 -1.554,5.679 -1.738,8.621 -7.703,-8.102 -19.031,-11.02 -29.863,-11.02 -16.844,0 -30.235,8.418 -30.235,26.649 0,20.082 15.149,24.879 30.235,26.949 14.953,2.25 28.879,1.723 28.879,11.699 0,10.461 -7.258,12.012 -15.825,12.012 -9.285,0 -15.281,-3.762 -16.16,-13.391 h -24.402" /><path
         id="path54"
         style="fill:#231f20;fill-opacity:1;fill-rule:nonzero;stroke:none"
         d="m 898.293,291.762 h 17.879 v -16.321 h -17.879 v -43.953 c 0,-8.269 2.078,-10.328 10.301,-10.328 2.59,0 5,0.168 7.578,0.668 v -19.066 c -4.152,-0.692 -9.484,-0.852 -14.285,-0.852 -14.907,0 -27.969,3.449 -27.969,21.141 v 52.39 h -14.797 v 16.321 h 14.797 v 26.636 h 24.375 v -26.636" /><path
         id="path56"
         style="fill:#231f20;fill-opacity:1;fill-rule:nonzero;stroke:none"
         d="m 934.57,291.762 h 24.407 V 202.93 H 934.57 Z m 24.407,13.75 H 934.57 v 20.109 h 24.407 v -20.109" /><path
         id="path58"
         style="fill:#231f20;fill-opacity:1;fill-rule:nonzero;stroke:none"
         d="m 1021.2,218.922 c 16.7,0 21.66,14.269 21.66,28.34 0,14.258 -4.96,28.508 -21.66,28.508 -16.48,0 -21.473,-14.25 -21.473,-28.508 0,-14.071 4.993,-28.34 21.473,-28.34 z m 0,75.226 c 28.02,0 46.09,-18.519 46.09,-46.886 0,-28.184 -18.07,-46.731 -46.09,-46.731 -27.809,0 -45.829,18.547 -45.829,46.731 0,28.367 18.02,46.886 45.829,46.886" /><path
         id="path60"
         style="fill:#231f20;fill-opacity:1;fill-rule:nonzero;stroke:none"
         d="m 1083.05,291.762 h 23.2 v -12.371 h 0.51 c 6.19,9.968 16.83,14.757 27.16,14.757 25.93,0 32.45,-14.589 32.45,-36.578 v -54.64 h -24.39 v 50.179 c 0,14.602 -4.3,21.832 -15.62,21.832 -13.25,0 -18.92,-7.402 -18.92,-25.453 V 202.93 h -24.39 v 88.832" /></g></g></svg>