<?xml version="1.0" encoding="utf-8"?>
<!-- Generator: Adobe Illustrator 27.7.0, SVG Export Plug-In . SVG Version: 6.00 Build 0)  -->
<svg version="1.1" id="Layer_2_00000051364155904601759430000015361568347913821087_"
	 xmlns="http://www.w3.org/2000/svg" xmlns:xlink="http://www.w3.org/1999/xlink" x="0px" y="0px" width="300px" height="265.5px"
	 viewBox="0 0 300 265.5" style="enable-background:new 0 0 300 265.5;" xml:space="preserve">
<style type="text/css">
	.st0{fill-rule:evenodd;clip-rule:evenodd;fill:#DFF0F3;}
	.st1{fill-rule:evenodd;clip-rule:evenodd;fill:#2BB3BB;}
</style>
<g id="Layer_1-2">
	<g>
		<path id="c-blue-blue-a" class="st0" d="M185.4,36.9l22.3,22.4L1.5,265.5H0v-43.2L185.4,36.9z M222.3,73.9l22.4,22.4L75.4,265.5
			H30.7L222.3,73.9L222.3,73.9z M260.4,110.8l5,5v34.6l-115,115h-44.7L260.4,110.8L260.4,110.8z M148.5,0l22.3,22.4L0,193.2v-44.7
			L148.5,0z M117,0L0,117V72.3L72.3,0H117L117,0z"/>
		<path id="c-blue-blue-c" class="st1" d="M192.4,28.1c5.1,0,9.2-4.2,9.2-9.2s-4.1-9.2-9.2-9.2s-9.2,4.1-9.2,9.2
			S187.4,28.1,192.4,28.1z M224.9,28.1c5.1,0,9.2-4.2,9.2-9.2s-4.1-9.2-9.2-9.2s-9.2,4.2-9.2,9.2S219.8,28.1,224.9,28.1z
			 M257.4,28.1c5.1,0,9.2-4.2,9.2-9.2s-4.2-9.2-9.2-9.2s-9.2,4.2-9.2,9.2S252.3,28.1,257.4,28.1z M290.8,28.1c5.1,0,9.2-4.2,9.2-9.2
			s-4.2-9.2-9.2-9.2s-9.2,4.2-9.2,9.2S285.7,28.1,290.8,28.1z M192.4,65.8c5.1,0,9.2-4.2,9.2-9.2s-4.2-9.2-9.2-9.2s-9.2,4.2-9.2,9.2
			S187.3,65.8,192.4,65.8z M224.9,65.8c5.1,0,9.2-4.2,9.2-9.2s-4.2-9.2-9.2-9.2s-9.2,4.2-9.2,9.2S219.8,65.8,224.9,65.8z
			 M257.4,65.8c5.1,0,9.2-4.2,9.2-9.2s-4.2-9.2-9.2-9.2s-9.3,4.2-9.3,9.2S252.3,65.8,257.4,65.8z M290.8,65.8c5.1,0,9.2-4.2,9.2-9.2
			s-4.2-9.2-9.2-9.2s-9.2,4.2-9.2,9.2S285.7,65.8,290.8,65.8z M192.4,104.4c5.1,0,9.2-4.2,9.2-9.2s-4.2-9.2-9.2-9.2
			s-9.2,4.2-9.2,9.2S187.3,104.4,192.4,104.4z M224.9,104.4c5.1,0,9.2-4.2,9.2-9.2s-4.2-9.2-9.2-9.2s-9.2,4.2-9.2,9.2
			S219.8,104.4,224.9,104.4z M257.4,104.4c5.1,0,9.2-4.2,9.2-9.2s-4.2-9.2-9.2-9.2s-9.2,4.2-9.2,9.2S252.3,104.4,257.4,104.4z
			 M290.8,104.4c5.1,0,9.2-4.2,9.2-9.2s-4.2-9.2-9.2-9.2s-9.2,4.2-9.2,9.2S285.7,104.4,290.8,104.4z"/>
	</g>
</g>
</svg>
