<svg width="1546" height="224" viewBox="0 0 1546 224" fill="none" xmlns="http://www.w3.org/2000/svg">
<path d="M92 26H1392" stroke="black"/>
<path d="M0 0H1546V224L1239 178.5L0 224V0Z" fill="#252525"/>
<path d="M1536.5 0.0998535L1507.53 0.0998077L1545.93 38.5L1545.93 9.53339L1536.5 0.0998535Z" fill="#2BB3BB"/>
<path d="M1486.37 0L1457.5 0.0994263L1545.5 88.0995V59.1328L1486.37 0Z" fill="#2BB3BB"/>
<path d="M1439 0.0341797L1410.03 0.0342102L1546 136L1546 107.033L1439 0.0341797Z" fill="#2BB3BB"/>
<path d="M1444 56.0332L1430 70.9999L1546 187L1546 158.033L1444 56.0332Z" fill="#2BB3BB"/>
<path d="M1419 82L1405 96.9667L1529 221.5L1546 224L1546 209L1419 82Z" fill="#2BB3BB"/>
<path d="M1428.58 45.6896L1381 0V92.093L1428.58 45.6896Z" fill="#2BB3BB"/>
<path d="M1447 45.6896L1400.95 0V92.093L1447 45.6896Z" fill="#DFF0F3"/>
<circle cx="7.66355" cy="7.66355" r="7.66355" transform="matrix(1 0 0 -1 62.1709 23.3269)" fill="#2BB3BB"/>
<circle cx="7.66355" cy="7.66355" r="7.66355" transform="matrix(1 0 0 -1 14 78.0668)" fill="#2BB3BB"/>
<circle cx="7.66355" cy="7.66355" r="7.66355" transform="matrix(1 0 0 -1 38.0859 78.0668)" fill="#2BB3BB"/>
<circle cx="7.66355" cy="7.66355" r="7.66355" transform="matrix(1 0 0 -1 62.1709 78.0668)" fill="#2BB3BB"/>
<circle cx="7.66355" cy="7.66355" r="7.66355" transform="matrix(1 0 0 -1 86.2559 78.0668)" fill="#2BB3BB"/>
<circle cx="7.66355" cy="7.66355" r="7.66355" transform="matrix(1 0 0 -1 14 50.6973)" fill="#2BB3BB"/>
<circle cx="7.66355" cy="7.66355" r="7.66355" transform="matrix(1 0 0 -1 38.0859 50.6973)" fill="#2BB3BB"/>
<circle cx="7.66355" cy="7.66355" r="7.66355" transform="matrix(1 0 0 -1 62.1709 50.6973)" fill="#2BB3BB"/>
<circle cx="7.66355" cy="7.66355" r="7.66355" transform="matrix(1 0 0 -1 86.2559 50.6973)" fill="#2BB3BB"/>
<circle cx="7.66355" cy="7.66355" r="7.66355" transform="matrix(1 0 0 -1 14 23.3269)" fill="#2BB3BB"/>
<circle cx="7.66355" cy="7.66355" r="7.66355" transform="matrix(1 0 0 -1 38.0859 23.3269)" fill="#2BB3BB"/>
<circle cx="7.66355" cy="7.66355" r="7.66355" transform="matrix(1 0 0 -1 86.2559 23.3269)" fill="#2BB3BB"/>
<path fill-rule="evenodd" clip-rule="evenodd" d="M66.5499 113.1C66.5499 99.1938 55.2763 87.9202 41.3697 87.9202C27.463 87.9202 16.1895 99.1938 16.1895 113.1C16.1895 127.007 27.463 138.281 41.3697 138.281C55.2763 138.281 66.5499 127.007 66.5499 113.1ZM41.3697 94.4891C51.6485 94.4891 59.9812 102.822 59.9812 113.101C59.9812 123.379 51.6485 131.712 41.3697 131.712C31.0909 131.712 22.7582 123.379 22.7582 113.101C22.7582 102.822 31.0909 94.4891 41.3697 94.4891ZM41.3697 101.058C48.0207 101.058 53.4124 106.449 53.4124 113.1C53.4124 119.751 48.0207 125.143 41.3697 125.143C34.7187 125.143 29.327 119.751 29.327 113.1C29.327 106.449 34.7187 101.058 41.3697 101.058ZM41.3696 106.532C44.9974 106.532 47.9384 109.473 47.9384 113.101C47.9384 116.728 44.9974 119.669 41.3696 119.669C37.7418 119.669 34.8009 116.728 34.8009 113.101C34.8009 109.473 37.7418 106.532 41.3696 106.532Z" fill="#2BB3BB"/>
<circle cx="27.9172" cy="27.9172" r="25.9172" transform="matrix(1 0 0 -1 114.721 72.5933)" stroke="#2BB3BB" stroke-width="4"/>
</svg>
