<svg width="1546" height="271" viewBox="0 0 1546 271" fill="none" xmlns="http://www.w3.org/2000/svg">
<g clip-path="url(#clip0_283_51)">
<rect width="1546" height="271" fill="white"/>
<path d="M0 20H1380.5H1546V244L1239 195.5L0 244V20Z" fill="#DFF0F3"/>
<path d="M0 0H1380.5H1546V224L1239 175.5L0 224V0Z" fill="#2BB3BB"/>
<path d="M52 46.5H24L144.5 167V139L52 46.5Z" fill="#DFF0F3"/>
<path d="M144.5 46.4999H116.5L144.5 74.4999V46.4999Z" fill="#DFF0F3"/>
<path d="M98.5 46.4999H70.5L144.5 120.5V92.4999L98.5 46.4999Z" fill="#DFF0F3"/>
<path fill-rule="evenodd" clip-rule="evenodd" d="M1335.14 212.805C1319.04 212.805 1306 225.85 1306 241.942C1306 258.034 1319.04 271.079 1335.14 271.079C1351.23 271.079 1364.27 258.034 1364.27 241.942C1364.27 225.85 1351.23 212.805 1335.14 212.805ZM1335.14 227.374C1327.09 227.374 1320.57 233.896 1320.57 241.942C1320.57 249.988 1327.09 256.51 1335.14 256.51C1343.18 256.51 1349.7 249.988 1349.7 241.942C1349.7 233.896 1343.18 227.374 1335.14 227.374Z" fill="#DFF0F3"/>
<path fill-rule="evenodd" clip-rule="evenodd" d="M1337.45 66.6736C1327.94 66.6736 1320.23 74.3836 1320.23 83.8945C1320.23 93.4054 1327.94 101.115 1337.45 101.115C1346.96 101.115 1354.67 93.4054 1354.67 83.8945C1354.67 74.3836 1346.96 66.6736 1337.45 66.6736ZM1337.45 75.2838C1332.69 75.2838 1328.84 79.1388 1328.84 83.8943C1328.84 88.6497 1332.69 92.5048 1337.45 92.5048C1342.2 92.5048 1346.06 88.6497 1346.06 83.8943C1346.06 79.1388 1342.2 75.2838 1337.45 75.2838Z" fill="#DFF0F3"/>
<circle cx="1465.12" cy="28.6634" r="7.66355" transform="rotate(-180 1465.12 28.6634)" fill="#DFF0F3"/>
<circle cx="1513.29" cy="83.4031" r="7.66355" transform="rotate(-180 1513.29 83.4031)" fill="#DFF0F3"/>
<circle cx="1489.21" cy="83.4031" r="7.66355" transform="rotate(-180 1489.21 83.4031)" fill="#DFF0F3"/>
<circle cx="1465.12" cy="83.4031" r="7.66355" transform="rotate(-180 1465.12 83.4031)" fill="#DFF0F3"/>
<circle cx="1441.04" cy="83.4031" r="7.66355" transform="rotate(-180 1441.04 83.4031)" fill="#DFF0F3"/>
<circle cx="1513.29" cy="56.0337" r="7.66355" transform="rotate(-180 1513.29 56.0337)" fill="#DFF0F3"/>
<circle cx="1489.21" cy="56.0337" r="7.66355" transform="rotate(-180 1489.21 56.0337)" fill="#DFF0F3"/>
<circle cx="1465.12" cy="56.0337" r="7.66355" transform="rotate(-180 1465.12 56.0337)" fill="#DFF0F3"/>
<circle cx="1441.04" cy="56.0337" r="7.66355" transform="rotate(-180 1441.04 56.0337)" fill="#DFF0F3"/>
<circle cx="1513.29" cy="28.6634" r="7.66355" transform="rotate(-180 1513.29 28.6634)" fill="#DFF0F3"/>
<circle cx="1489.21" cy="28.6634" r="7.66355" transform="rotate(-180 1489.21 28.6634)" fill="#DFF0F3"/>
<circle cx="1441.04" cy="28.6634" r="7.66355" transform="rotate(-180 1441.04 28.6634)" fill="#DFF0F3"/>
<path fill-rule="evenodd" clip-rule="evenodd" d="M1468.41 126.1C1468.41 112.194 1479.68 100.92 1493.59 100.92C1507.49 100.92 1518.77 112.194 1518.77 126.1C1518.77 140.007 1507.49 151.281 1493.59 151.281C1479.68 151.281 1468.41 140.007 1468.41 126.1ZM1493.59 107.489C1483.31 107.489 1474.98 115.822 1474.98 126.1C1474.98 136.379 1483.31 144.712 1493.59 144.712C1503.87 144.712 1512.2 136.379 1512.2 126.1C1512.2 115.822 1503.87 107.489 1493.59 107.489ZM1493.59 114.057C1486.94 114.057 1481.54 119.449 1481.54 126.1C1481.54 132.751 1486.94 138.143 1493.59 138.143C1500.24 138.143 1505.63 132.751 1505.63 126.1C1505.63 119.449 1500.24 114.057 1493.59 114.057ZM1493.59 119.532C1489.96 119.532 1487.02 122.473 1487.02 126.101C1487.02 129.728 1489.96 132.669 1493.59 132.669C1497.22 132.669 1500.16 129.728 1500.16 126.101C1500.16 122.473 1497.22 119.532 1493.59 119.532Z" fill="#DFF0F3"/>
<circle cx="1392.32" cy="57.6758" r="25.9172" transform="rotate(-180 1392.32 57.6758)" stroke="#DFF0F3" stroke-width="4"/>
<path fill-rule="evenodd" clip-rule="evenodd" d="M1449.14 156.832C1449.14 125.99 1424.13 100.987 1393.29 100.987C1362.45 100.987 1337.45 125.99 1337.45 156.832C1337.45 187.674 1362.45 212.677 1393.29 212.677C1424.13 212.677 1449.14 187.674 1449.14 156.832ZM1393.29 115.555C1416.09 115.555 1434.57 134.035 1434.57 156.832C1434.57 179.629 1416.09 198.109 1393.29 198.109C1370.5 198.109 1352.02 179.629 1352.02 156.832C1352.02 134.035 1370.5 115.555 1393.29 115.555ZM1393.29 130.123C1408.04 130.123 1420 142.081 1420 156.832C1420 171.583 1408.04 183.54 1393.29 183.54C1378.54 183.54 1366.58 171.583 1366.58 156.832C1366.58 142.081 1378.54 130.123 1393.29 130.123ZM1393.29 142.264C1401.34 142.264 1407.86 148.786 1407.86 156.832C1407.86 164.878 1401.34 171.4 1393.29 171.4C1385.25 171.4 1378.72 164.878 1378.72 156.832C1378.72 148.786 1385.25 142.264 1393.29 142.264Z" fill="#DFF0F3"/>
<path d="M1404.21 57.6783C1404.21 50.7416 1398.71 45.1906 1392.02 45.1906C1385.33 45.1906 1379.83 50.7416 1379.83 57.6783C1379.83 64.615 1385.33 70.166 1392.02 70.166C1398.71 70.166 1404.21 64.615 1404.21 57.6783Z" stroke="#DFF0F3" stroke-width="4"/>
</g>
<defs>
<clipPath id="clip0_283_51">
<rect width="1546" height="271" fill="white"/>
</clipPath>
</defs>
</svg>
